<?xml version="1.0" encoding="UTF-8"?>
<!DOCTYPE svg PUBLIC "-//W3C//DTD SVG 1.1//EN" "http://www.w3.org/Graphics/SVG/1.1/DTD/svg11.dtd">
<!-- Creator: CorelDRAW -->
<svg xmlns="http://www.w3.org/2000/svg" xml:space="preserve" width="320.501mm" height="86.9686mm" version="1.1" style="shape-rendering:geometricPrecision; text-rendering:geometricPrecision; image-rendering:optimizeQuality; fill-rule:evenodd; clip-rule:evenodd"
viewBox="0 0 29957.55 8129.03"
 xmlns:xlink="http://www.w3.org/1999/xlink"
 xmlns:xodm="http://www.corel.com/coreldraw/odm/2003">
 <defs>
  <style type="text/css">
   <![CDATA[
    .fil2 {fill:black}
    .fil7 {fill:#1654B0}
    .fil4 {fill:#1A1A1A}
    .fil3 {fill:#F4F4F4}
    .fil8 {fill:#F4F4F4}
    .fil1 {fill:#1654B0;fill-rule:nonzero}
    .fil5 {fill:#E6E6E6;fill-rule:nonzero}
    .fil0 {fill:#F4F4F4;fill-rule:nonzero}
    .fil6 {fill:white;fill-rule:nonzero}
   ]]>
  </style>
 </defs>
 <g id="Layer_x0020_1">
  <metadata id="CorelCorpID_0Corel-Layer"/>
  <g id="_1801870217856">
   <path class="fil0" d="M2203.52 0l3721.99 0c1216.76,0 2203.52,986.76 2203.52,2203.52l0 3721.99c0,1216.76 -986.76,2203.52 -2203.52,2203.52l-3721.99 0c-1216.76,0 -2203.52,-986.76 -2203.52,-2203.52l0 -3721.99c0,-1216.76 986.76,-2203.52 2203.52,-2203.52z"/>
   <path class="fil1" d="M1774.81 5890.09c237.88,-377.3 449.2,-910.58 635.09,-1597.68 185.88,-687.09 305.37,-1253.57 359.58,-1698.35 2.22,-142.73 58.64,-266.65 170.39,-372.86 111.75,-106.22 208.01,-169.29 292.1,-191.42 82.98,-21.02 140.51,-32.08 172.6,-32.08 67.49,0 115.06,23.24 142.73,70.8l308.69 2606.73 1286.77 -2531.49c57.53,-86.3 116.17,-130.56 174.82,-132.78 58.63,-2.22 92.94,-3.32 104.01,-3.32 95.14,0 183.66,25.45 265.54,77.45l337.46 304.27c32.08,28.77 47.57,66.38 47.57,113.96 0,32.09 -6.64,69.7 -22.12,112.86 -188.09,469.12 -352.95,933.82 -494.57,1394.09 -141.62,460.27 -238.99,812.11 -293.2,1053.31 -66.38,305.37 -100.69,583.08 -100.69,833.13 0,281.03 40.94,529.97 123.92,745.73l-460.27 0c-300.95,-32.09 -453.63,-237.88 -456.95,-616.28 16.59,-390.57 253.37,-1265.75 709.21,-2625.53l-1043.35 2081.18c-123.92,173.71 -243.42,260.01 -359.59,260.01 -13.27,0 -25.44,-1.1 -36.51,-3.32 -129.45,-22.12 -214.65,-107.32 -255.59,-256.69l-204.68 -1432.82c-90.73,489.04 -201.37,926.07 -333.04,1313.32 -132.77,386.14 -312.01,815.43 -538.82,1286.77l-52.01 -13.27c-109.53,-21.02 -220.17,-55.33 -331.92,-101.8 -111.74,-46.46 -180.34,-101.79 -206.9,-167.07 -27.66,-64.17 -40.94,-115.06 -40.94,-152.68 0,-88.51 33.19,-195.83 100.69,-324.18z"/>
   <path class="fil2" d="M5736.88 5733.16c117.3,0 212.38,95.09 212.38,212.38 0,117.3 -95.09,212.38 -212.38,212.38 -117.3,0 -212.38,-95.09 -212.38,-212.38 0,-117.3 95.09,-212.38 212.38,-212.38z"/>
   <g>
    <path class="fil3" d="M4598.83 2169.45c10.33,-21.24 22.52,-41.62 36.29,-61.58 7.37,-10.7 18.69,-24.45 28.48,-37.49 -13.78,-17.48 -32.2,-37.7 -41.86,-50.21 -36.57,-47.39 -66.78,-100.36 -66.78,-162.04 0,-95.12 101.46,-181.59 171.65,-233.79 52.55,-39.09 160.1,-111.83 227.05,-111.83 80.74,0 142.92,45.58 191.46,106.25 16.55,20.69 31.13,42.51 45.7,64.6 1.66,2.52 3.55,5.48 5.56,8.61 19.78,-5.85 42.45,-14.09 55.38,-17.08 17.55,-4.08 33.64,-7.31 49.37,-9.8 7.74,-96.7 34.21,-198.15 119.72,-248.32 81.16,-47.62 180.6,-27.88 268.5,-15.4 116.53,16.55 228.57,24.49 273.94,156.29 17.17,49.86 9.96,111.02 2.28,162.33 -2.42,16.14 -5.84,34.11 -8.9,52.2 34.09,18.56 66.83,41.86 98.45,64.56 23.55,-17.24 46.79,-34.8 70.61,-52.04 37.37,-27.04 76.41,-52.12 123.53,-56.89 57.29,-5.79 104.18,19.75 144.88,57.78 42.57,39.78 81.82,92.99 116.83,139.58 54.93,73.11 124.81,157.26 98.3,255.6 -20.39,75.6 -101.86,140.76 -174.81,191.19 11.08,35.24 20.05,73.13 25.78,109.56 46.51,5.97 93.31,10.04 138.73,25.4 112.63,38.08 155.04,129.47 139.45,244.99 -9.08,67.27 -17.52,135.42 -29.72,202.17 -18.4,100.56 -73.81,174.55 -177.82,191.95 -55.6,9.31 -120.41,0.54 -181.09,-11.81 -17.9,31.71 -39.59,61.66 -61.1,91.29 20.05,28.34 40.23,56.65 58.65,85.65 28.43,44.74 50.14,91.33 43.61,145.87 -6.85,57.28 -42.55,100.66 -83.19,138.65 -50.42,47.12 -109.98,90.66 -164.85,132.65 -104.75,80.17 -215.18,77.04 -307.93,-15.29 -27.25,-27.13 -49.5,-57.75 -72.65,-88.25 -3.08,-4.06 -7.54,-10.05 -12.53,-16.37 -22.47,7.12 -44.92,14.43 -69.79,19.17 -17.16,3.26 -31.79,4.17 -46.46,4.84 -11.13,56.03 2.75,114.64 -23.03,172.72 -59.6,134.21 -254.47,105.13 -370.41,89.03 -106.31,-14.76 -230.58,-38.47 -256.32,-161.76 -8.45,-40.46 -3.86,-83.75 0.2,-124.53 2.81,-28.33 5.39,-56.19 7.04,-84.19 -31.18,-16.58 -64.88,-37.62 -94.39,-59.13 -32.07,26.19 -63.6,53.05 -100.5,73.5 -93.27,51.66 -184.72,37.01 -261.78,-37.61 -3.79,-3.68 -6.78,-7.08 -9.94,-11.31l-153.39 -205.93c-2.56,-3.45 -4.56,-6.53 -6.66,-10.29 -59.81,-107.16 -12.62,-213.43 70.78,-289.65 18.82,-17.19 48.67,-40.09 79.86,-59.99 -4.95,-15.23 -10.16,-30.39 -13.67,-45.12 -4.51,-18.97 -7.9,-38.21 -11.19,-57.47 -103.27,-11.31 -220.97,-37.12 -264.07,-133.61 -21.22,-47.47 -19.41,-98.98 -13.39,-149.4 6.44,-53.9 16.57,-107.52 23.35,-161.53 15.27,-121.73 69,-223.66 203.57,-227.5 53.23,-1.51 106.01,12.14 159.21,20.76zm845.86 113.92c-77.98,0 -187.9,53.47 -238.6,110.91 -122.63,138.95 -138.41,358.89 -8.41,498.6 104.08,111.86 166.41,119.25 313.37,119.25 172.5,0 331.21,-174.95 331.21,-344.48 0,-243.49 -157.97,-384.29 -397.57,-384.29zm-1073.91 -549.43c0.65,4.45 1.23,8.73 1.46,13.3 0.36,7.39 0.59,15.07 0.53,22.47 -0.1,12.42 -1.36,24.84 -1.78,37.25 -0.87,25.89 -0.68,51.81 -0.68,77.71 0,32.14 -14.76,59.78 -41.47,77.67 -104.99,70.28 -159.17,73.8 -221.54,191.64 -16.62,31.41 -47.09,49.75 -82.62,49.75 -425.18,0 -858.96,78.24 -1180.79,376.39 -138.61,128.41 -254.27,267.92 -342.46,435.98 -68.08,129.74 -171.67,437.83 -174.89,582.6 -0.97,43.24 -30.13,79.13 -72.24,88.95 -75.98,17.7 -152.17,32.82 -228.67,48.03 -57.61,11.47 -115.44,23.17 -171.93,39.35 -134.01,38.38 -247.18,103.05 -362.45,180.29 -202.08,135.41 -301.89,368.09 -317.06,605.3 -15.73,245.85 58.48,507.55 218.4,697.26 63.21,74.99 132.97,139.98 217.35,190.87 59.36,35.81 118.54,56.16 183.04,79.43 72.26,26.07 148.73,62.35 148.73,151.97 0,79.02 1.67,157.83 2.67,236.82 0.54,42.33 2.28,95.4 -7.03,136.62 -13.97,61.82 -59.39,103.4 -124.48,102.06 -33.3,-0.68 -68.8,-13.24 -100.82,-22.33 -344.35,-97.83 -485.25,-189.81 -736.69,-443.5 -54.07,-54.56 -116.75,-139.51 -156.94,-205.36 -198.4,-325.09 -244.79,-568.68 -244.79,-945.62 0,-207.98 79.94,-453.34 179.9,-633.61 195.44,-352.45 531.57,-579.95 910.21,-699.95 40.08,-12.7 80.4,-24.11 121.33,-33.81 5.95,-1.41 12.7,-2.78 19.54,-4.22 4.73,-18.68 9.97,-37.14 15.86,-55.5 217.96,-679.67 672.54,-1164.24 1353,-1393.8 203.66,-68.71 449.64,-112.58 665.41,-112.58 83.56,0 169.75,3.81 253.05,9.63 47.17,3.29 95.72,7.31 142.34,15.25 59.95,10.2 128.5,31.67 136.49,103.67zm2286.91 1572.59c53.16,-12.38 168.83,-105.44 183.03,-158.68 8.03,-30.09 28.25,-52.41 57.38,-63.38 29.14,-10.96 59.05,-7.52 84.93,9.81 96.72,64.77 166.06,155.31 235.07,247.1 208,276.65 314.88,649.43 337.06,991.7 0.14,2.12 0.2,3.93 0.2,6.05l0 262.81c0,2.18 -0.07,4.04 -0.21,6.22 -12.3,184.55 -50.32,371.14 -122.76,541.79 -35.04,82.55 -70.42,155.61 -116.42,232.59 -23.53,39.37 -49.83,74.75 -78.05,110.79 -24.44,31.21 -48.08,62.97 -74.36,92.71 -172.15,194.86 -658.29,513.51 -920.52,519.37 -26.1,0.58 -48.77,-8.37 -67.44,-26.62 -18.67,-18.25 -28.12,-40.73 -28.12,-66.83 0,-97.18 -2.23,-193.95 -3.62,-291.07 -0.66,-46.36 -2.84,-107.45 12.31,-151.49 17.83,-51.86 54,-77.94 104.13,-94.65 35.2,-11.73 64.92,-20.78 98.78,-37.47 134.95,-66.5 292.39,-163.32 383.63,-285.03 248.55,-331.5 284.96,-903.51 100.55,-1270.53 -47.34,-94.24 -100.35,-192.7 -179.24,-264.61 -74.88,-68.25 -78.6,-119.9 -78.6,-219.54 0,-43.98 29.42,-81.05 72.26,-91.03z"/>
   </g>
   <g>
    <path class="fil4" d="M5444.69 2189.9c295.75,0 491.04,186.75 491.04,477.76 0,223.97 -203.18,437.95 -424.68,437.95 -162.41,0 -253.56,-11.23 -381.8,-149.05 -163.74,-175.98 -147,-449.89 6.77,-624.12 57.67,-65.34 189.46,-142.53 308.68,-142.53zm-53.09 -437.94c-52.63,0 -76.14,4.1 -118.72,13.97 -36.36,8.44 -70.47,25.84 -106.88,25.84 -41.88,0 -94.11,-185.79 -212.34,-185.79 -49.74,0 -305.23,164.9 -305.23,252.15 0,84.76 119.44,165.94 119.44,212.34 0,37.54 -81.35,92.55 -106.16,199.06 -169.71,-3.78 -304.43,-108.73 -332.91,118.3 -32.97,262.61 -93.36,318.45 240.01,346.19 8.73,37.47 15.59,89.4 23.48,122.51 11.81,49.55 25.44,66.38 29.61,116.36 -20.95,5.6 -250.21,121.33 -175.88,254.51l153.39 205.93c110.7,107.2 192.8,-16.26 301.19,-88.84 23.92,32.64 140.61,107.37 185.78,119.45 0,249.78 -85.05,302.76 166.6,337.69 385.09,53.45 240.36,-68.88 300.64,-228.79 17.68,-46.91 40.88,-24.09 108.94,-37.04 49.48,-9.41 70.39,-21.93 113.92,-32.05 82.96,55.55 145.71,275.86 309.63,150.39 288.32,-220.66 247.62,-191.44 88.5,-429.08 34.08,-50.9 104.15,-133.44 119.44,-199.06 187.39,43.65 295.45,60.25 322.71,-88.7 9.94,-54.39 19.87,-129.95 29.04,-197.86 24,-177.84 -137.99,-146.67 -272.12,-177.93 0,-74.91 -28.81,-175 -53.09,-225.6 252.33,-168.98 238.29,-191.33 115.66,-354.54 -182.19,-242.48 -164.34,-175.44 -381.07,-30.31 -50.73,-33.97 -136.98,-104.98 -199.06,-119.45 1.44,-64.68 37.68,-188.67 18.81,-243.5 -27.74,-80.56 -103.85,-80.69 -198.71,-94.17 -175.33,-24.9 -284.6,-51.85 -284.6,258.05z"/>
    <path class="fil4" d="M667.12 4538.86c0,364.59 42.81,588.39 231.11,896.93 33.71,55.24 100.51,144.83 143.54,188.25 246.08,248.3 370,326.83 695.84,419.39 142.02,40.36 110.63,52.93 110.63,-363.26 0,-59.54 -136.42,-60.8 -286.58,-151.37 -94.8,-57.18 -171.46,-128.7 -240.54,-210.66 -350.2,-415.4 -329.77,-1140.36 118.09,-1440.45 328.69,-220.25 443.35,-199.39 793.88,-281.06 3.44,-154.02 109.54,-479.08 185.58,-623.96 94.69,-180.45 216.69,-326.78 361.7,-461.11 333.02,-308.54 778.15,-401.29 1244.31,-401.29 75.65,-142.95 137.88,-149.1 252.16,-225.6 0,-27.12 -0.17,-53.75 0.74,-80.84 0.32,-9.41 1.66,-27.42 1.72,-34.88 0.04,-3.99 -0.28,-14.23 -0.42,-17.1 -0.07,-1.49 -0.83,-5.76 -0.93,-6.87 -3.08,-36.41 -363.91,-46.11 -439.05,-46.11 -221.28,0 -467.12,50.85 -635.53,107.67 -659.46,222.48 -1087.4,689.93 -1293.88,1333.78 -47.49,148.12 18.97,79.14 -217.5,154.09 -359.12,113.79 -674.43,327.47 -856.71,656.17 -78.1,140.85 -168.17,377.6 -168.17,588.28z"/>
    <path class="fil4" d="M6678.9 3397.56c0,214.25 45.61,39.59 247.89,442.19 193.5,385.15 169.15,997.18 -109.29,1368.56 -100.34,133.83 -267.07,238.86 -417.1,312.8 -202.98,100.04 -159.45,-53.82 -159.45,490.83 217.76,-4.86 682.01,-294.76 852.56,-487.81 24.41,-27.63 46.59,-57.51 70.8,-88.45 28.92,-36.93 49.52,-64.49 71.41,-101.12 46.12,-77.18 72.31,-130.92 110.61,-221.16 65.7,-154.78 103.44,-330.06 115.54,-511.48l0 -262.81c-22.65,-349.44 -134,-696.2 -318.49,-941.58 -61.81,-82.22 -126.18,-167.89 -212.36,-225.59 -22.81,85.46 -162.04,204.62 -252.14,225.61z"/>
   </g>
   <path class="fil5" d="M13988.52 6190.43c0,22.46 -1.29,46.23 -3.89,71.28l-567.68 0c4.32,69.99 28.29,124.64 71.94,163.96 43.63,39.31 96.56,58.97 158.77,58.97 50.98,0 93.53,-11.88 127.66,-35.64 34.13,-23.76 58.1,-55.51 71.93,-95.27l127.02 0c-19.01,68.26 -57.03,123.77 -114.05,166.55 -57.03,42.77 -127.88,64.16 -212.55,64.16 -67.4,0 -127.67,-15.12 -180.81,-45.36 -53.14,-30.25 -94.83,-73.23 -125.06,-128.96 -30.25,-55.73 -45.37,-120.32 -45.37,-193.77 0,-73.44 14.69,-137.81 44.07,-193.11 29.38,-55.3 70.64,-97.85 123.77,-127.66 53.14,-29.82 114.27,-44.72 183.4,-44.72 67.39,0 127.01,14.68 178.86,44.06 51.84,29.38 91.81,69.78 119.89,121.19 28.08,51.41 42.12,109.52 42.12,174.32zm-121.83 -24.63c0,-44.92 -9.94,-83.59 -29.81,-116 -19.87,-32.4 -46.88,-57.03 -81,-73.87 -34.14,-16.85 -71.94,-25.27 -113.41,-25.27 -59.62,0 -110.38,19 -152.29,57.03 -41.9,38.01 -65.88,90.72 -71.93,158.12l448.44 0zm623.41 -316.24c86.4,0 156.4,26.13 209.96,78.41 53.58,52.28 80.36,127.66 80.36,226.16l0 418.64 -116.64 0 0 -401.78c0,-70.85 -17.71,-125.07 -53.14,-162.66 -35.43,-37.58 -83.82,-56.38 -145.16,-56.38 -62.21,0 -111.68,19.44 -148.4,58.33 -36.72,38.88 -55.08,95.48 -55.08,169.79l0 392.71 -117.94 0 0 -710.25 117.94 0 0 101.09c23.33,-36.29 55.08,-64.37 95.27,-84.25 40.17,-19.87 84.46,-29.81 132.84,-29.81zm835.98 0c53.57,0 101.96,11.45 145.16,34.35 43.2,22.89 77.11,57.24 101.74,103.03 24.62,45.8 36.93,101.53 36.93,167.19l0 418.64 -116.64 0 0 -401.78c0,-70.85 -17.71,-125.07 -53.14,-162.66 -35.43,-37.58 -83.82,-56.38 -145.16,-56.38 -62.21,0 -111.68,19.44 -148.4,58.33 -36.72,38.88 -55.08,95.48 -55.08,169.79l0 392.71 -117.94 0 0 -959.1 117.94 0 0 349.94c23.33,-36.29 55.51,-64.37 96.56,-84.25 41.04,-19.87 87.06,-29.81 138.04,-29.81zm432.88 365.5c0,-72.58 14.69,-136.31 44.07,-191.18 29.38,-54.87 69.77,-97.42 121.19,-127.66 51.41,-30.24 108.65,-45.36 171.72,-45.36 62.21,0 116.22,13.39 162.01,40.17 45.79,26.79 79.93,60.49 102.39,101.1l0 -129.61 119.24 0 0 710.25 -119.24 0 0 -132.2c-23.33,41.47 -58.11,75.81 -104.33,103.03 -46.23,27.22 -100.01,40.83 -161.36,40.83 -63.08,0 -120.11,-15.55 -171.09,-46.66 -50.98,-31.11 -91.15,-74.74 -120.53,-130.91 -29.38,-56.16 -44.07,-120.1 -44.07,-191.81zm601.38 1.29c0,-53.57 -10.8,-100.23 -32.4,-139.97 -21.6,-39.74 -50.76,-70.21 -87.49,-91.38 -36.72,-21.17 -77.11,-31.75 -121.19,-31.75 -44.06,0 -84.25,10.37 -120.53,31.11 -36.29,20.73 -65.24,50.98 -86.84,90.72 -21.6,39.74 -32.4,86.4 -32.4,139.98 0,54.43 10.8,101.73 32.4,141.92 21.6,40.17 50.55,70.85 86.84,92.02 36.29,21.17 76.47,31.75 120.53,31.75 44.07,0 84.46,-10.58 121.19,-31.75 36.72,-21.17 65.89,-51.85 87.49,-92.02 21.6,-40.18 32.4,-87.05 32.4,-140.63zm664.89 -366.79c86.4,0 156.4,26.13 209.96,78.41 53.58,52.28 80.36,127.66 80.36,226.16l0 418.64 -116.64 0 0 -401.78c0,-70.85 -17.71,-125.07 -53.14,-162.66 -35.43,-37.58 -83.82,-56.38 -145.16,-56.38 -62.21,0 -111.68,19.44 -148.4,58.33 -36.72,38.88 -55.08,95.48 -55.08,169.79l0 392.71 -117.94 0 0 -710.25 117.94 0 0 101.09c23.33,-36.29 55.08,-64.37 95.27,-84.25 40.17,-19.87 84.46,-29.81 132.84,-29.81zm439.37 366.79c0,-73.44 14.69,-137.6 44.07,-192.47 29.38,-54.87 70.21,-97.42 122.47,-127.66 52.28,-30.24 112.12,-45.36 179.51,-45.36 87.26,0 159.2,21.17 215.8,63.5 56.6,42.34 93.97,101.1 112.11,176.27l-127.02 0c-12.1,-43.2 -35.64,-77.33 -70.64,-102.39 -35,-25.06 -78.41,-37.58 -130.25,-37.58 -67.39,0 -121.83,23.12 -163.3,69.34 -41.48,46.23 -62.21,111.68 -62.21,196.35 0,85.54 20.73,151.65 62.21,198.3 41.47,46.66 95.91,69.99 163.3,69.99 51.84,0 95.04,-12.1 129.61,-36.29 34.57,-24.2 58.33,-58.76 71.28,-103.69l127.02 0c-19.01,72.58 -57.03,130.68 -114.05,174.32 -57.03,43.63 -128.31,65.45 -213.85,65.45 -67.39,0 -127.23,-15.12 -179.51,-45.36 -52.27,-30.25 -93.1,-73.01 -122.47,-128.32 -29.38,-55.3 -44.07,-120.1 -44.07,-194.41zm1478.82 -25.92c0,22.46 -1.29,46.23 -3.89,71.28l-567.68 0c4.32,69.99 28.29,124.64 71.94,163.96 43.63,39.31 96.56,58.97 158.77,58.97 50.98,0 93.53,-11.88 127.66,-35.64 34.13,-23.76 58.1,-55.51 71.93,-95.27l127.02 0c-19.01,68.26 -57.03,123.77 -114.05,166.55 -57.03,42.77 -127.88,64.16 -212.55,64.16 -67.4,0 -127.67,-15.12 -180.81,-45.36 -53.14,-30.25 -94.83,-73.23 -125.06,-128.96 -30.25,-55.73 -45.37,-120.32 -45.37,-193.77 0,-73.44 14.69,-137.81 44.07,-193.11 29.38,-55.3 70.64,-97.85 123.77,-127.66 53.14,-29.82 114.27,-44.72 183.4,-44.72 67.39,0 127.01,14.68 178.86,44.06 51.84,29.38 91.81,69.78 119.89,121.19 28.08,51.41 42.12,109.52 42.12,174.32zm-121.83 -24.63c0,-44.92 -9.94,-83.59 -29.81,-116 -19.87,-32.4 -46.88,-57.03 -81,-73.87 -34.14,-16.85 -71.94,-25.27 -113.41,-25.27 -59.62,0 -110.38,19 -152.29,57.03 -41.9,38.01 -65.88,90.72 -71.93,158.12l448.44 0zm1235.16 -303.28l-427.7 1044.64 -121.83 0 139.97 -342.17 -286.43 -702.47 130.91 0 222.92 575.45 220.34 -575.45 121.83 0zm427.7 721.91c-66.53,0 -126.8,-15.12 -180.8,-45.36 -54.01,-30.25 -96.34,-73.23 -127.02,-128.96 -30.68,-55.73 -46.02,-120.32 -46.02,-193.77 0,-72.58 15.77,-136.74 47.31,-192.47 31.54,-55.73 74.52,-98.5 128.95,-128.31 54.44,-29.82 115.35,-44.72 182.75,-44.72 67.39,0 128.31,14.9 182.74,44.72 54.43,29.81 97.42,72.37 128.95,127.66 31.55,55.3 47.31,119.67 47.31,193.11 0,73.45 -16.21,138.04 -48.6,193.77 -32.41,55.73 -76.25,98.71 -131.55,128.96 -55.3,30.24 -116.65,45.36 -184.04,45.36zm0 -103.69c42.33,0 82.09,-9.94 119.24,-29.81 37.15,-19.87 67.18,-49.68 90.08,-89.43 22.89,-39.74 34.34,-88.13 34.34,-145.16 0,-57.03 -11.24,-105.42 -33.7,-145.16 -22.46,-39.74 -51.84,-69.34 -88.13,-88.78 -36.29,-19.44 -75.61,-29.16 -117.94,-29.16 -43.2,0 -82.73,9.72 -118.6,29.16 -35.86,19.44 -64.59,49.03 -86.19,88.78 -21.6,39.74 -32.4,88.13 -32.4,145.16 0,57.9 10.58,106.72 31.75,146.46 21.17,39.74 49.46,69.34 84.89,88.78 35.43,19.44 74.31,29.16 116.65,29.16zm1149.62 -618.23l0 710.25 -117.94 0 0 -104.99c-22.46,36.29 -53.78,64.59 -93.97,84.9 -40.17,20.3 -84.46,30.45 -132.85,30.45 -55.3,0 -104.98,-11.45 -149.05,-34.34 -44.06,-22.9 -78.84,-57.24 -104.33,-103.04 -25.49,-45.79 -38.23,-101.53 -38.23,-167.19l0 -416.04 116.64 0 0 400.49c0,69.99 17.71,123.77 53.14,161.36 35.43,37.58 83.82,56.38 145.16,56.38 63.07,0 112.76,-19.44 149.05,-58.33 36.29,-38.88 54.44,-95.47 54.44,-169.78l0 -390.12 117.94 0zm317.54 115.35c20.74,-40.61 50.33,-72.15 88.78,-94.62 38.45,-22.46 85.33,-33.7 140.63,-33.7l0 121.83 -31.11 0c-132.2,0 -198.3,71.72 -198.3,215.15l0 386.23 -117.94 0 0 -710.25 117.94 0 0 115.35zm1000.57 -18.15l-149.05 0 0 613.05 -117.94 0 0 -613.05 -92.02 0 0 -97.2 92.02 0 0 -50.55c0,-79.5 20.53,-137.6 61.57,-174.32 41.03,-36.72 106.92,-55.08 197.64,-55.08l0 98.5c-51.84,0 -88.35,10.15 -109.52,30.46 -21.16,20.3 -31.75,53.78 -31.75,100.44l0 50.55 149.05 0 0 97.2zm767.27 -97.2l0 710.25 -117.94 0 0 -104.99c-22.46,36.29 -53.78,64.59 -93.97,84.9 -40.17,20.3 -84.46,30.45 -132.85,30.45 -55.3,0 -104.98,-11.45 -149.05,-34.34 -44.06,-22.9 -78.84,-57.24 -104.33,-103.04 -25.49,-45.79 -38.23,-101.53 -38.23,-167.19l0 -416.04 116.64 0 0 400.49c0,69.99 17.71,123.77 53.14,161.36 35.43,37.58 83.82,56.38 145.16,56.38 63.07,0 112.76,-19.44 149.05,-58.33 36.29,-38.88 54.44,-95.47 54.44,-169.78l0 -390.12 117.94 0zm343.46 97.2l0 418.64c0,34.56 7.35,58.97 22.04,73.23 14.68,14.25 40.17,21.39 76.47,21.39l86.83 0 0 99.8 -106.28 0c-65.67,0 -114.92,-15.12 -147.76,-45.36 -32.84,-30.25 -49.25,-79.93 -49.25,-149.05l0 -418.64 -92.02 0 0 -97.2 92.02 0 0 -178.86 117.94 0 0 178.86 185.34 0 0 97.2 -185.34 0zm957.81 -97.2l0 710.25 -117.94 0 0 -104.99c-22.46,36.29 -53.78,64.59 -93.97,84.9 -40.17,20.3 -84.46,30.45 -132.85,30.45 -55.3,0 -104.98,-11.45 -149.05,-34.34 -44.06,-22.9 -78.84,-57.24 -104.33,-103.04 -25.49,-45.79 -38.23,-101.53 -38.23,-167.19l0 -416.04 116.64 0 0 400.49c0,69.99 17.71,123.77 53.14,161.36 35.43,37.58 83.82,56.38 145.16,56.38 63.07,0 112.76,-19.44 149.05,-58.33 36.29,-38.88 54.44,-95.47 54.44,-169.78l0 -390.12 117.94 0zm317.54 115.35c20.74,-40.61 50.33,-72.15 88.78,-94.62 38.45,-22.46 85.33,-33.7 140.63,-33.7l0 121.83 -31.11 0c-132.2,0 -198.3,71.72 -198.3,215.15l0 386.23 -117.94 0 0 -710.25 117.94 0 0 115.35zm1013.53 212.55c0,22.46 -1.29,46.23 -3.89,71.28l-567.68 0c4.32,69.99 28.29,124.64 71.94,163.96 43.63,39.31 96.56,58.97 158.77,58.97 50.98,0 93.53,-11.88 127.66,-35.64 34.13,-23.76 58.1,-55.51 71.93,-95.27l127.02 0c-19.01,68.26 -57.03,123.77 -114.05,166.55 -57.03,42.77 -127.88,64.16 -212.55,64.16 -67.4,0 -127.67,-15.12 -180.81,-45.36 -53.14,-30.25 -94.83,-73.23 -125.06,-128.96 -30.25,-55.73 -45.37,-120.32 -45.37,-193.77 0,-73.44 14.69,-137.81 44.07,-193.11 29.38,-55.3 70.64,-97.85 123.77,-127.66 53.14,-29.82 114.27,-44.72 183.4,-44.72 67.39,0 127.01,14.68 178.86,44.06 51.84,29.38 91.81,69.78 119.89,121.19 28.08,51.41 42.12,109.52 42.12,174.32zm-121.83 -24.63c0,-44.92 -9.94,-83.59 -29.81,-116 -19.87,-32.4 -46.88,-57.03 -81,-73.87 -34.14,-16.85 -71.94,-25.27 -113.41,-25.27 -59.62,0 -110.38,19 -152.29,57.03 -41.9,38.01 -65.88,90.72 -71.93,158.12l448.44 0z"/>
   <path class="fil6" d="M12700.47 1760.44l0 2857.68 -468.75 0 0 -1957.2 -871.69 1957.2 -324.83 0 -875.8 -1957.2 0 1957.2 -468.75 0 0 -2857.68 505.75 0 1003.27 2240.91 999.16 -2240.91 501.64 0zm2668.53 592.09l0 2265.58 -468.74 0 0 -267.26c-74.01,93.2 -170.64,166.52 -289.88,219.97 -119.24,53.46 -246.02,80.18 -380.33,80.18 -178.18,0 -337.85,-37.01 -479.02,-111.02 -141.18,-74.01 -252.19,-183.66 -333.06,-328.94 -80.86,-145.28 -121.3,-320.72 -121.3,-526.31l0 -1332.21 464.63 0 0 1262.32c0,202.85 50.72,358.4 152.14,466.68 101.42,108.28 239.85,162.42 415.28,162.42 175.44,0 314.55,-54.14 417.35,-162.42 102.79,-108.28 154.19,-263.83 154.19,-466.68l0 -1262.32 468.74 0zm1788.62 -37.01c172.7,0 326.89,37.01 462.58,111.02 135.68,74.02 242.59,183.66 320.72,328.94 78.12,145.28 117.18,320.72 117.18,526.31l0 1336.33 -464.63 0 0 -1266.43c0,-202.84 -50.71,-358.4 -152.13,-466.68 -101.43,-108.28 -239.85,-162.42 -415.28,-162.42 -175.44,0 -314.56,54.14 -417.35,162.42 -102.8,108.28 -154.19,263.84 -154.19,466.68l0 1266.43 -468.75 0 0 -3042.71 468.75 0 0 1040.28c79.49,-95.95 180.23,-169.96 302.21,-222.04 121.99,-52.08 255.61,-78.12 400.9,-78.12zm1340.44 1159.52c0,-227.52 47.29,-428.99 141.86,-604.43 94.56,-175.44 223.4,-311.81 386.5,-409.12 163.1,-97.3 343.34,-145.96 540.7,-145.96 178.17,0 333.74,34.95 466.68,104.86 132.94,69.9 239.17,156.93 318.66,261.09l0 -328.94 472.85 0 0 2265.58 -472.85 0 0 -337.17c-79.49,106.91 -187.76,196 -324.83,267.27 -137.06,71.27 -293.3,106.9 -468.74,106.9 -194.63,0 -372.8,-50.03 -534.53,-150.08 -161.72,-100.05 -289.88,-239.86 -384.45,-419.4 -94.57,-179.55 -141.86,-383.08 -141.86,-610.6zm1854.41 8.23c0,-156.25 -32.21,-291.94 -96.62,-407.07 -64.42,-115.13 -148.71,-202.84 -252.88,-263.15 -104.16,-60.31 -216.55,-90.46 -337.17,-90.46 -120.61,0 -232.99,29.47 -337.16,88.4 -104.16,58.93 -188.46,145.28 -252.88,259.04 -64.42,113.76 -96.63,248.76 -96.63,405.01 0,156.25 32.21,293.31 96.63,411.18 64.42,117.88 149.39,207.65 254.93,269.32 105.53,61.68 217.24,92.52 335.1,92.52 120.61,0 233,-30.15 337.17,-90.46 104.16,-60.3 188.46,-148.7 252.88,-265.2 64.41,-116.5 96.62,-252.88 96.62,-409.12zm1328.1 -1430.89c-84.97,0 -156.25,-28.79 -213.81,-86.35 -57.57,-57.57 -86.35,-128.84 -86.35,-213.81 0,-84.97 28.78,-156.25 86.35,-213.81 57.56,-57.56 128.83,-86.34 213.81,-86.34 82.24,0 152.14,28.78 209.7,86.34 57.57,57.57 86.35,128.84 86.35,213.81 0,84.97 -28.78,156.25 -86.35,213.81 -57.56,57.56 -127.47,86.35 -209.7,86.35zm230.27 300.15l0 2265.58 -468.75 0 0 -2265.58 468.75 0zm3359.31 -37.01c178.18,0 337.85,37.01 479.02,111.02 141.18,74.02 252.19,183.66 333.06,328.94 80.86,145.28 121.3,320.72 121.3,526.31l0 1336.33 -464.63 0 0 -1266.43c0,-202.84 -50.72,-358.4 -152.14,-466.68 -101.42,-108.28 -239.85,-162.42 -415.28,-162.42 -175.44,0 -314.55,54.14 -417.35,162.42 -102.79,108.28 -154.19,263.84 -154.19,466.68l0 1266.43 -464.63 0 0 -1266.43c0,-202.84 -50.71,-358.4 -152.13,-466.68 -101.43,-108.28 -239.85,-162.42 -415.28,-162.42 -175.44,0 -314.56,54.14 -417.35,162.42 -102.8,108.28 -154.19,263.84 -154.19,466.68l0 1266.43 -468.75 0 0 -2265.58 468.75 0 0 259.05c76.75,-93.2 174.06,-165.85 291.93,-217.93 117.88,-52.08 243.97,-78.12 378.29,-78.12 180.92,0 342.65,38.38 485.19,115.13 142.54,76.76 252.18,187.77 328.94,333.06 68.53,-137.06 175.44,-246.02 320.72,-326.89 145.28,-80.86 301.53,-121.3 468.74,-121.3zm1768.06 -263.15c-84.97,0 -156.25,-28.79 -213.81,-86.35 -57.57,-57.57 -86.35,-128.84 -86.35,-213.81 0,-84.97 28.78,-156.25 86.35,-213.81 57.56,-57.56 128.83,-86.34 213.81,-86.34 82.24,0 152.14,28.78 209.7,86.34 57.57,57.57 86.35,128.84 86.35,213.81 0,84.97 -28.78,156.25 -86.35,213.81 -57.56,57.56 -127.47,86.35 -209.7,86.35zm230.27 300.15l0 2265.58 -468.75 0 0 -2265.58 468.75 0zm1759.83 -37.01c178.17,0 337.85,37.01 479.02,111.02 141.17,74.02 251.5,183.66 331,328.94 79.5,145.28 119.24,320.72 119.24,526.31l0 1336.33 -464.63 0 0 -1266.43c0,-202.84 -50.71,-358.4 -152.13,-466.68 -101.43,-108.28 -239.85,-162.42 -415.28,-162.42 -175.44,0 -314.56,54.14 -417.35,162.42 -102.8,108.28 -154.19,263.84 -154.19,466.68l0 1266.43 -468.75 0 0 -2265.58 468.75 0 0 259.05c76.75,-93.2 174.74,-165.85 293.98,-217.93 119.24,-52.08 246.02,-78.12 380.34,-78.12z"/>
   <g>
    <path class="fil3" d="M20806.61 1267.18c10.33,-21.24 22.52,-41.62 36.29,-61.58 7.37,-10.7 18.69,-24.45 28.48,-37.49 -13.78,-17.48 -32.2,-37.7 -41.86,-50.21 -36.57,-47.39 -66.78,-100.36 -66.78,-162.04 0,-95.12 101.46,-181.59 171.65,-233.79 52.55,-39.09 160.1,-111.83 227.05,-111.83 80.74,0 142.92,45.58 191.46,106.25 16.55,20.69 31.13,42.51 45.7,64.6 1.66,2.52 3.55,5.48 5.56,8.61 19.78,-5.85 42.45,-14.09 55.38,-17.08 17.55,-4.08 33.64,-7.31 49.37,-9.8 7.74,-96.7 34.21,-198.15 119.72,-248.32 81.16,-47.62 180.6,-27.88 268.5,-15.4 116.53,16.55 228.57,24.49 273.94,156.29 17.17,49.86 9.96,111.02 2.28,162.33 -2.42,16.14 -5.84,34.11 -8.9,52.2 34.09,18.56 66.83,41.86 98.45,64.56 23.55,-17.24 46.79,-34.8 70.61,-52.04 37.37,-27.04 76.41,-52.12 123.53,-56.89 57.29,-5.79 104.18,19.75 144.88,57.78 42.57,39.78 81.82,92.99 116.83,139.58 54.93,73.11 124.81,157.26 98.3,255.6 -20.39,75.6 -101.86,140.76 -174.81,191.19 11.08,35.24 20.05,73.13 25.78,109.56 46.51,5.97 93.31,10.04 138.73,25.4 112.63,38.08 155.04,129.47 139.45,244.99 -9.08,67.27 -17.52,135.42 -29.72,202.17 -18.4,100.56 -73.81,174.55 -177.82,191.95 -55.6,9.31 -120.41,0.54 -181.09,-11.81 -17.9,31.71 -39.59,61.66 -61.1,91.29 20.05,28.34 40.23,56.65 58.65,85.65 28.43,44.74 50.14,91.33 43.61,145.87 -6.85,57.28 -42.55,100.66 -83.19,138.65 -50.42,47.12 -109.98,90.66 -164.85,132.65 -104.75,80.17 -215.18,77.04 -307.93,-15.29 -27.25,-27.13 -49.5,-57.75 -72.65,-88.25 -3.08,-4.06 -7.54,-10.05 -12.53,-16.37 -22.47,7.12 -44.92,14.43 -69.79,19.17 -17.16,3.26 -31.79,4.17 -46.46,4.84 -11.13,56.03 2.75,114.64 -23.03,172.72 -59.6,134.21 -254.47,105.13 -370.41,89.03 -106.31,-14.76 -230.58,-38.47 -256.32,-161.76 -8.45,-40.46 -3.86,-83.75 0.2,-124.53 2.81,-28.33 5.39,-56.19 7.04,-84.19 -31.18,-16.58 -64.88,-37.62 -94.39,-59.13 -32.07,26.19 -63.6,53.05 -100.5,73.5 -93.27,51.66 -184.72,37.01 -261.78,-37.61 -3.79,-3.68 -6.78,-7.08 -9.94,-11.31l-153.39 -205.93c-2.56,-3.45 -4.56,-6.53 -6.66,-10.29 -59.81,-107.16 -12.62,-213.43 70.78,-289.65 18.82,-17.19 48.67,-40.09 79.86,-59.99 -4.95,-15.23 -10.16,-30.39 -13.67,-45.12 -4.51,-18.97 -7.9,-38.21 -11.19,-57.47 -103.27,-11.31 -220.97,-37.12 -264.07,-133.61 -21.22,-47.47 -19.41,-98.98 -13.39,-149.4 6.44,-53.9 16.57,-107.52 23.35,-161.53 15.27,-121.73 69,-223.66 203.57,-227.5 53.23,-1.51 106.01,12.14 159.21,20.76zm845.86 113.92c-77.98,0 -187.9,53.47 -238.6,110.91 -122.63,138.95 -138.41,358.89 -8.41,498.6 104.08,111.86 166.41,119.25 313.37,119.25 172.5,0 331.21,-174.95 331.21,-344.48 0,-243.49 -157.97,-384.29 -397.57,-384.29z"/>
   </g>
   <path class="fil7" d="M21652.47 1287.64c295.75,0 491.04,186.75 491.04,477.76 0,223.97 -203.18,437.95 -424.68,437.95 -162.41,0 -253.56,-11.23 -381.8,-149.05 -163.74,-175.98 -147,-449.89 6.77,-624.12 57.67,-65.34 189.46,-142.53 308.68,-142.53zm-53.09 -437.94c-52.63,0 -76.14,4.1 -118.72,13.97 -36.36,8.44 -70.47,25.84 -106.88,25.84 -41.88,0 -94.11,-185.79 -212.34,-185.79 -49.74,0 -305.23,164.9 -305.23,252.15 0,84.76 119.44,165.94 119.44,212.34 0,37.54 -81.35,92.55 -106.16,199.06 -169.71,-3.78 -304.43,-108.73 -332.91,118.3 -32.97,262.61 -93.36,318.45 240.01,346.19 8.73,37.47 15.59,89.4 23.48,122.51 11.81,49.55 25.44,66.38 29.61,116.36 -20.95,5.6 -250.21,121.33 -175.88,254.51l153.39 205.93c110.7,107.2 192.8,-16.26 301.19,-88.84 23.92,32.64 140.61,107.37 185.78,119.45 0,249.78 -85.05,302.76 166.6,337.69 385.09,53.45 240.36,-68.88 300.64,-228.79 17.68,-46.91 40.88,-24.09 108.94,-37.04 49.48,-9.41 70.39,-21.93 113.92,-32.05 82.96,55.55 145.71,275.86 309.63,150.39 288.32,-220.66 247.62,-191.44 88.5,-429.08 34.08,-50.9 104.15,-133.44 119.44,-199.06 187.39,43.65 295.45,60.25 322.71,-88.7 9.94,-54.39 19.87,-129.95 29.04,-197.86 24,-177.84 -137.99,-146.67 -272.12,-177.93 0,-74.91 -28.81,-175 -53.09,-225.6 252.33,-168.98 238.29,-191.33 115.66,-354.54 -182.19,-242.48 -164.34,-175.44 -381.07,-30.31 -50.73,-33.97 -136.98,-104.98 -199.06,-119.45 1.44,-64.68 37.68,-188.67 18.81,-243.5 -27.74,-80.56 -103.85,-80.69 -198.71,-94.17 -175.33,-24.9 -284.6,-51.85 -284.6,258.05z"/>
   <path class="fil8" d="M5475.17 2187.69c253.75,0 459.46,205.7 459.46,459.46 0,253.75 -205.7,459.46 -459.46,459.46 -253.75,0 -459.46,-205.7 -459.46,-459.46 0,-253.75 205.7,-459.46 459.46,-459.46z"/>
   <path class="fil7" d="M5475.17 2385.57c144.47,0 261.57,117.1 261.57,261.57 0,144.47 -117.1,261.57 -261.57,261.57 -144.47,0 -261.57,-117.1 -261.57,-261.57 0,-144.47 117.1,-261.57 261.57,-261.57z"/>
  </g>
 </g>
</svg>
