<?xml version="1.0" encoding="UTF-8"?>
<!DOCTYPE svg PUBLIC "-//W3C//DTD SVG 1.1//EN" "http://www.w3.org/Graphics/SVG/1.1/DTD/svg11.dtd">
<!-- Creator: CorelDRAW -->
<svg xmlns="http://www.w3.org/2000/svg" xml:space="preserve" width="320.501mm" height="86.9686mm" version="1.1" style="shape-rendering:geometricPrecision; text-rendering:geometricPrecision; image-rendering:optimizeQuality; fill-rule:evenodd; clip-rule:evenodd"
viewBox="0 0 31130.88 8447.42"
 xmlns:xlink="http://www.w3.org/1999/xlink"
 xmlns:xodm="http://www.corel.com/coreldraw/odm/2003">
 <defs>
  <style type="text/css">
   <![CDATA[
    .fil2 {fill:black}
    .fil7 {fill:#1654B0}
    .fil4 {fill:#1A1A1A}
    .fil3 {fill:#F4F4F4}
    .fil8 {fill:#F4F4F4}
    .fil6 {fill:black;fill-rule:nonzero}
    .fil1 {fill:#1654B0;fill-rule:nonzero}
    .fil5 {fill:gray;fill-rule:nonzero}
    .fil0 {fill:#F4F4F4;fill-rule:nonzero}
   ]]>
  </style>
 </defs>
 <g id="Layer_x0020_1">
  <metadata id="CorelCorpID_0Corel-Layer"/>
  <path class="fil0" d="M2289.82 0l3867.77 0c1264.41,0 2289.82,1025.41 2289.82,2289.82l0 3867.77c0,1264.41 -1025.41,2289.82 -2289.82,2289.82l-3867.77 0c-1264.41,0 -2289.82,-1025.41 -2289.82,-2289.82l0 -3867.77c0,-1264.41 1025.41,-2289.82 2289.82,-2289.82z"/>
  <path class="fil1" d="M1844.32 6120.78c247.2,-392.07 466.8,-946.25 659.96,-1660.25 193.16,-714 317.33,-1302.66 373.67,-1764.87 2.3,-148.32 60.94,-277.1 177.06,-387.47 116.13,-110.38 216.16,-175.92 303.54,-198.92 86.23,-21.84 146.02,-33.34 179.36,-33.34 70.13,0 119.57,24.15 148.32,73.58l320.78 2708.83 1337.17 -2630.64c59.78,-89.68 120.73,-135.67 181.67,-137.98 60.93,-2.3 96.58,-3.45 108.08,-3.45 98.87,0 190.85,26.45 275.94,80.48l350.68 316.18c33.34,29.9 49.43,68.98 49.43,118.42 0,33.35 -6.9,72.43 -22.99,117.28 -195.46,487.49 -366.77,970.4 -513.94,1448.69 -147.16,478.3 -248.35,843.92 -304.68,1094.57 -68.98,317.33 -104.63,605.92 -104.63,865.77 0,292.04 42.54,550.73 128.78,774.94l-478.3 0c-312.74,-33.35 -471.4,-247.2 -474.85,-640.42 17.24,-405.87 263.3,-1315.32 736.99,-2728.36l-1084.21 2162.69c-128.78,180.51 -252.95,270.19 -373.68,270.19 -13.79,0 -26.44,-1.15 -37.94,-3.45 -134.52,-22.99 -223.05,-111.53 -265.6,-266.74l-212.7 -1488.93c-94.29,508.19 -209.26,962.34 -346.08,1364.76 -137.97,401.26 -324.23,847.37 -559.93,1337.17l-54.04 -13.79c-113.82,-21.84 -228.79,-57.49 -344.92,-105.79 -116.12,-48.28 -187.41,-105.78 -215,-173.61 -28.74,-66.68 -42.54,-119.57 -42.54,-158.66 0,-91.97 34.49,-203.5 104.63,-336.87z"/>
  <path class="fil2" d="M5961.57 5957.71c121.89,0 220.7,98.81 220.7,220.7 0,121.89 -98.81,220.7 -220.7,220.7 -121.89,0 -220.7,-98.81 -220.7,-220.7 0,-121.89 98.81,-220.7 220.7,-220.7z"/>
  <g id="_1801995151728">
   <path class="fil3" d="M4778.95 2254.42c10.73,-22.07 23.4,-43.25 37.71,-63.99 7.66,-11.12 19.43,-25.41 29.6,-38.96 -14.32,-18.16 -33.46,-39.17 -43.5,-52.18 -38,-49.25 -69.4,-104.29 -69.4,-168.39 0,-98.84 105.44,-188.7 178.37,-242.95 54.61,-40.62 166.37,-116.21 235.94,-116.21 83.9,0 148.51,47.36 198.96,110.41 17.2,21.5 32.34,44.18 47.49,67.13 1.73,2.62 3.69,5.69 5.78,8.95 20.55,-6.08 44.12,-14.64 57.55,-17.75 18.24,-4.23 34.96,-7.6 51.31,-10.18 8.04,-100.48 35.55,-205.91 124.41,-258.05 84.34,-49.49 187.68,-28.97 279.01,-16.01 121.09,17.2 237.53,25.45 284.67,162.41 17.84,51.81 10.35,115.36 2.37,168.69 -2.52,16.77 -6.07,35.44 -9.25,54.25 35.42,19.29 69.45,43.5 102.31,67.09 24.48,-17.91 48.62,-36.16 73.37,-54.07 38.83,-28.1 79.41,-54.16 128.37,-59.11 59.53,-6.01 108.26,20.52 150.55,60.05 44.23,41.34 85.03,96.64 121.41,145.05 57.08,75.98 129.7,163.41 102.15,265.61 -21.18,78.56 -105.85,146.27 -181.66,198.68 11.51,36.62 20.83,76 26.79,113.85 48.33,6.21 96.97,10.43 144.16,26.39 117.04,39.57 161.11,134.54 144.91,254.58 -9.43,69.91 -18.2,140.72 -30.89,210.09 -19.12,104.49 -76.7,181.38 -184.78,199.47 -57.77,9.67 -125.13,0.56 -188.18,-12.27 -18.6,32.96 -41.15,64.08 -63.5,94.87 20.83,29.45 41.81,58.87 60.95,89 29.55,46.49 52.1,94.91 45.32,151.58 -7.12,59.52 -44.21,104.6 -86.45,144.08 -52.39,48.96 -114.29,94.21 -171.3,137.85 -108.86,83.31 -223.61,80.06 -319.99,-15.89 -28.31,-28.19 -51.44,-60.01 -75.49,-91.7 -3.2,-4.22 -7.84,-10.44 -13.02,-17.01 -23.35,7.4 -46.68,15 -72.53,19.92 -17.83,3.39 -33.03,4.33 -48.28,5.03 -11.57,58.22 2.86,119.13 -23.93,179.48 -61.93,139.46 -264.43,109.24 -384.91,92.52 -110.48,-15.34 -239.61,-39.98 -266.35,-168.1 -8.78,-42.05 -4.01,-87.03 0.2,-129.41 2.92,-29.44 5.6,-58.39 7.31,-87.49 -32.4,-17.23 -67.42,-39.1 -98.08,-61.45 -33.33,27.22 -66.09,55.13 -104.44,76.37 -96.93,53.68 -191.95,38.46 -272.04,-39.09 -3.94,-3.83 -7.04,-7.35 -10.33,-11.75l-159.39 -213.99c-2.66,-3.58 -4.74,-6.79 -6.92,-10.69 -62.15,-111.35 -13.11,-221.79 73.55,-300.99 19.55,-17.86 50.58,-41.66 82.99,-62.34 -5.15,-15.82 -10.56,-31.58 -14.21,-46.89 -4.69,-19.72 -8.21,-39.71 -11.63,-59.72 -107.31,-11.75 -229.63,-38.57 -274.42,-138.84 -22.05,-49.33 -20.17,-102.85 -13.91,-155.26 6.69,-56.02 17.22,-111.73 24.26,-167.85 15.87,-126.49 71.7,-232.42 211.54,-236.41 55.32,-1.57 110.17,12.62 165.44,21.57zm878.98 118.38c-81.04,0 -195.26,55.57 -247.95,115.26 -127.44,144.4 -143.83,372.95 -8.74,518.13 108.16,116.24 172.92,123.92 325.64,123.92 179.26,0 344.19,-181.8 344.19,-357.97 0,-253.03 -164.15,-399.34 -413.14,-399.34zm-1115.97 -570.95c0.68,4.62 1.28,9.07 1.52,13.82 0.38,7.68 0.61,15.66 0.55,23.35 -0.11,12.91 -1.41,25.82 -1.85,38.71 -0.9,26.91 -0.71,53.84 -0.71,80.76 0,33.4 -15.34,62.13 -43.1,80.72 -109.1,73.03 -165.41,76.69 -230.21,199.15 -17.27,32.64 -48.94,51.7 -85.85,51.7 -441.83,0 -892.6,81.3 -1227.04,391.13 -144.04,133.44 -264.23,278.42 -355.87,453.05 -70.75,134.82 -178.39,454.98 -181.74,605.42 -1.01,44.93 -31.31,82.23 -75.07,92.43 -78.96,18.4 -158.13,34.1 -237.62,49.92 -59.86,11.92 -119.96,24.08 -178.66,40.89 -139.26,39.88 -256.87,107.09 -376.65,187.35 -210,140.71 -313.72,382.51 -329.48,629.01 -16.35,255.48 60.77,527.43 226.96,724.57 65.69,77.93 138.18,145.46 225.86,198.34 61.69,37.21 123.18,58.36 190.21,82.54 75.09,27.09 154.56,64.8 154.56,157.93 0,82.12 1.74,164.02 2.78,246.09 0.56,43.99 2.37,99.13 -7.3,141.97 -14.52,64.24 -61.72,107.45 -129.35,106.06 -34.61,-0.71 -71.5,-13.75 -104.77,-23.2 -357.83,-101.66 -504.26,-197.25 -765.54,-460.87 -56.19,-56.7 -121.33,-144.97 -163.08,-213.4 -206.17,-337.82 -254.38,-590.95 -254.38,-982.65 0,-216.13 83.07,-471.1 186.95,-658.43 203.09,-366.25 552.39,-602.66 945.86,-727.36 41.65,-13.2 83.55,-25.05 126.08,-35.13 6.19,-1.47 13.2,-2.88 20.31,-4.38 4.91,-19.42 10.36,-38.59 16.48,-57.68 226.49,-706.29 698.88,-1209.84 1405.99,-1448.39 211.64,-71.4 467.25,-116.99 691.47,-116.99 86.84,0 176.4,3.96 262.96,10 49.01,3.42 99.47,7.6 147.91,15.84 62.3,10.6 133.54,32.91 141.83,107.73zm2376.48 1634.18c55.24,-12.87 175.44,-109.56 190.2,-164.89 8.34,-31.27 29.35,-54.46 59.63,-65.87 30.29,-11.39 61.37,-7.81 88.25,10.19 100.51,67.3 172.56,161.39 244.28,256.78 216.15,287.48 327.21,674.86 350.26,1030.54 0.15,2.2 0.2,4.08 0.2,6.28l0 273.11c0,2.26 -0.07,4.2 -0.21,6.46 -12.78,191.78 -52.3,385.67 -127.57,563.01 -36.41,85.79 -73.18,161.71 -120.98,241.7 -24.45,40.91 -51.78,77.68 -81.11,115.13 -25.4,32.43 -49.96,65.44 -77.27,96.35 -178.89,202.49 -684.07,533.62 -956.57,539.71 -27.12,0.6 -50.68,-8.7 -70.08,-27.66 -19.4,-18.97 -29.22,-42.32 -29.22,-69.45 0,-100.99 -2.32,-201.55 -3.76,-302.47 -0.69,-48.18 -2.95,-111.66 12.79,-157.42 18.53,-53.89 56.11,-80.99 108.2,-98.36 36.58,-12.19 67.47,-21.59 102.65,-38.94 140.24,-69.11 303.84,-169.72 398.66,-296.19 258.28,-344.49 296.12,-938.9 104.48,-1320.29 -49.2,-97.93 -104.28,-200.25 -186.26,-274.97 -77.81,-70.93 -81.68,-124.6 -81.68,-228.14 0,-45.7 30.58,-84.22 75.09,-94.6z"/>
  </g>
  <g id="_1801995153552">
   <path class="fil4" d="M5657.94 2275.67c307.33,0 510.27,194.06 510.27,496.47 0,232.75 -211.14,455.1 -441.32,455.1 -168.77,0 -263.49,-11.67 -396.75,-154.89 -170.16,-182.87 -152.76,-467.51 7.03,-648.57 59.93,-67.9 196.88,-148.12 320.77,-148.12zm-55.17 -455.09c-54.69,0 -79.12,4.26 -123.37,14.52 -37.78,8.77 -73.23,26.85 -111.07,26.85 -43.52,0 -97.79,-193.07 -220.65,-193.07 -51.68,0 -317.18,171.36 -317.18,262.02 0,88.08 124.12,172.44 124.12,220.65 0,39.01 -84.53,96.17 -110.32,206.86 -176.35,-3.92 -316.35,-112.99 -345.94,122.93 -34.26,272.89 -97.02,330.92 249.41,359.75 9.07,38.94 16.2,92.91 24.4,127.31 12.27,51.49 26.44,68.98 30.77,120.92 -21.77,5.82 -260.01,126.09 -182.77,264.48l159.39 213.99c115.03,111.4 200.35,-16.9 312.99,-92.32 24.86,33.92 146.12,111.58 193.06,124.12 0,259.57 -88.38,314.62 173.13,350.92 400.17,55.54 249.77,-71.58 312.41,-237.75 18.38,-48.75 42.49,-25.03 113.21,-38.49 51.42,-9.78 73.15,-22.79 118.38,-33.31 86.21,57.73 151.42,286.67 321.76,156.28 299.61,-229.3 257.32,-198.94 91.96,-445.88 35.41,-52.9 108.22,-138.67 124.12,-206.86 194.73,45.36 307.02,62.61 335.35,-92.18 10.33,-56.52 20.65,-135.04 30.18,-205.61 24.94,-184.8 -143.4,-152.42 -282.78,-184.9 0,-77.84 -29.94,-181.85 -55.17,-234.44 262.22,-175.59 247.62,-198.82 120.19,-368.43 -189.33,-251.98 -170.78,-182.32 -396,-31.5 -52.71,-35.3 -142.35,-109.09 -206.86,-124.12 1.5,-67.22 39.15,-196.06 19.54,-253.04 -28.83,-83.72 -107.91,-83.85 -206.49,-97.86 -182.2,-25.88 -295.75,-53.88 -295.75,268.16z"/>
   <path class="fil4" d="M693.25 4716.63c0,378.87 44.49,611.44 240.16,932.06 35.04,57.4 104.45,150.51 149.17,195.62 255.72,258.02 384.5,339.63 723.1,435.81 147.58,41.94 114.97,55.01 114.97,-377.48 0,-61.87 -141.76,-63.18 -297.81,-157.3 -98.51,-59.42 -178.18,-133.74 -249.96,-218.92 -363.91,-431.67 -342.68,-1185.03 122.72,-1496.87 341.56,-228.87 460.72,-207.2 824.97,-292.07 3.57,-160.05 113.83,-497.84 192.85,-648.39 98.39,-187.51 225.18,-339.58 375.87,-479.17 346.06,-320.62 808.63,-417.01 1293.05,-417.01 78.61,-148.54 143.28,-154.93 262.03,-234.44 0,-28.18 -0.17,-55.85 0.77,-84.01 0.33,-9.78 1.73,-28.49 1.79,-36.25 0.04,-4.15 -0.29,-14.78 -0.44,-17.77 -0.08,-1.54 -0.86,-5.98 -0.96,-7.14 -3.21,-37.83 -378.16,-47.92 -456.25,-47.92 -229.95,0 -485.42,52.84 -660.42,111.89 -685.28,231.19 -1129.99,716.95 -1344.56,1386.02 -49.35,153.92 19.71,82.24 -226.02,160.12 -373.18,118.25 -700.84,340.29 -890.26,681.88 -81.16,146.37 -174.76,392.39 -174.76,611.32z"/>
   <path class="fil4" d="M6940.49 3530.63c0,222.65 47.4,41.15 257.6,459.51 201.08,400.23 175.78,1036.23 -113.57,1422.17 -104.27,139.07 -277.53,248.22 -433.43,325.05 -210.93,103.96 -165.7,-55.93 -165.7,510.06 226.29,-5.05 708.72,-306.31 885.95,-506.91 25.36,-28.71 48.41,-59.77 73.58,-91.92 30.05,-38.38 51.46,-67.01 74.21,-105.08 47.92,-80.2 75.14,-136.05 114.95,-229.82 68.27,-160.84 107.5,-342.99 120.06,-531.52l0 -273.11c-23.54,-363.13 -139.25,-723.47 -330.97,-978.46 -64.23,-85.44 -131.12,-174.47 -220.67,-234.43 -23.7,88.81 -168.39,212.63 -262.01,234.45z"/>
  </g>
  <g id="_1801995157200">
   <path class="fil5" d="M14536.4 6432.89c0,23.34 -1.34,48.04 -4.04,74.07l-589.91 0c4.49,72.73 29.4,129.53 74.75,170.38 45.34,40.85 100.34,61.28 164.99,61.28 52.98,0 97.19,-12.35 132.66,-37.04 35.46,-24.69 60.38,-57.69 74.74,-99l131.99 0c-19.76,70.94 -59.26,128.62 -118.52,173.07 -59.26,44.45 -132.89,66.67 -220.88,66.67 -70.04,0 -132.67,-15.72 -187.89,-47.14 -55.22,-31.43 -98.54,-76.1 -129.96,-134.01 -31.43,-57.91 -47.15,-125.03 -47.15,-201.35 0,-76.32 15.27,-143.21 45.8,-200.67 30.53,-57.46 73.4,-101.69 128.62,-132.66 55.22,-30.99 118.74,-46.47 190.58,-46.47 70.03,0 131.98,15.26 185.86,45.79 53.87,30.53 95.4,72.51 124.58,125.93 29.18,53.42 43.77,113.81 43.77,181.15zm-126.6 -25.59c0,-46.68 -10.33,-86.86 -30.98,-120.54 -20.65,-33.67 -48.71,-59.26 -84.17,-76.76 -35.47,-17.51 -74.75,-26.26 -117.85,-26.26 -61.95,0 -114.7,19.75 -158.26,59.26 -43.54,39.5 -68.46,94.28 -74.74,164.31l466 0zm647.83 -328.63c89.79,0 162.52,27.16 218.19,81.48 55.68,54.33 83.5,132.66 83.5,235.02l0 435.03 -121.21 0 0 -417.52c0,-73.63 -18.41,-129.97 -55.22,-169.03 -36.81,-39.06 -87.1,-58.59 -150.85,-58.59 -64.65,0 -116.05,20.2 -154.22,60.61 -38.16,40.41 -57.24,99.22 -57.24,176.44l0 408.09 -122.56 0 0 -738.07 122.56 0 0 105.05c24.24,-37.71 57.24,-66.89 99,-87.54 41.75,-20.65 87.77,-30.98 138.04,-30.98zm868.72 0c55.67,0 105.95,11.9 150.85,35.7 44.89,23.79 80.13,59.48 105.73,107.07 25.58,47.59 38.38,105.5 38.38,173.74l0 435.03 -121.21 0 0 -417.52c0,-73.63 -18.41,-129.97 -55.22,-169.03 -36.81,-39.06 -87.1,-58.59 -150.85,-58.59 -64.65,0 -116.05,20.2 -154.22,60.61 -38.16,40.41 -57.24,99.22 -57.24,176.44l0 408.09 -122.56 0 0 -996.66 122.56 0 0 363.64c24.24,-37.71 57.69,-66.89 100.34,-87.54 42.65,-20.65 90.47,-30.98 143.44,-30.98zm449.84 379.81c0,-75.42 15.27,-141.65 45.8,-198.66 30.53,-57.02 72.5,-101.24 125.93,-132.66 53.42,-31.42 112.91,-47.14 178.45,-47.14 64.65,0 120.77,13.92 168.36,41.75 47.58,27.84 83.06,62.85 106.4,105.06l0 -134.68 123.91 0 0 738.07 -123.91 0 0 -137.37c-24.24,43.1 -60.39,78.78 -108.42,107.07 -48.04,28.28 -103.93,42.43 -167.68,42.43 -65.55,0 -124.81,-16.16 -177.79,-48.49 -52.98,-32.33 -94.72,-77.67 -125.25,-136.03 -30.53,-58.36 -45.8,-124.8 -45.8,-199.32zm624.94 1.34c0,-55.67 -11.22,-104.15 -33.67,-145.45 -22.45,-41.3 -52.75,-72.96 -90.92,-94.96 -38.16,-22 -80.13,-33 -125.93,-33 -45.79,0 -87.54,10.77 -125.25,32.33 -37.72,21.54 -67.8,52.98 -90.25,94.28 -22.45,41.3 -33.67,89.79 -33.67,145.46 0,56.56 11.22,105.72 33.67,147.48 22.45,41.75 52.53,73.63 90.25,95.63 37.71,22 79.46,33 125.25,33 45.8,0 87.77,-11 125.93,-33 38.16,-22 68.47,-53.88 90.92,-95.63 22.45,-41.76 33.67,-90.46 33.67,-146.13zm690.93 -381.15c89.79,0 162.52,27.16 218.19,81.48 55.68,54.33 83.5,132.66 83.5,235.02l0 435.03 -121.21 0 0 -417.52c0,-73.63 -18.41,-129.97 -55.22,-169.03 -36.81,-39.06 -87.1,-58.59 -150.85,-58.59 -64.65,0 -116.05,20.2 -154.22,60.61 -38.16,40.41 -57.24,99.22 -57.24,176.44l0 408.09 -122.56 0 0 -738.07 122.56 0 0 105.05c24.24,-37.71 57.24,-66.89 99,-87.54 41.75,-20.65 87.77,-30.98 138.04,-30.98zm456.58 381.15c0,-76.32 15.27,-142.99 45.8,-200 30.53,-57.02 72.96,-101.24 127.27,-132.66 54.33,-31.42 116.51,-47.14 186.54,-47.14 90.68,0 165.43,22 224.25,65.99 58.81,44 97.65,105.06 116.5,183.17l-131.99 0c-12.57,-44.89 -37.04,-80.36 -73.4,-106.4 -36.37,-26.04 -81.48,-39.06 -135.35,-39.06 -70.03,0 -126.6,24.02 -169.7,72.05 -43.11,48.04 -64.65,116.05 -64.65,204.04 0,88.9 21.54,157.59 64.65,206.07 43.1,48.49 99.67,72.73 169.7,72.73 53.87,0 98.76,-12.57 134.68,-37.71 35.92,-25.15 60.61,-61.06 74.07,-107.75l131.99 0c-19.76,75.42 -59.26,135.8 -118.52,181.15 -59.26,45.34 -133.33,68.01 -222.23,68.01 -70.03,0 -132.22,-15.72 -186.54,-47.14 -54.32,-31.43 -96.74,-75.87 -127.27,-133.34 -30.53,-57.46 -45.8,-124.8 -45.8,-202.02zm1536.74 -26.93c0,23.34 -1.34,48.04 -4.04,74.07l-589.91 0c4.49,72.73 29.4,129.53 74.75,170.38 45.34,40.85 100.34,61.28 164.99,61.28 52.98,0 97.19,-12.35 132.66,-37.04 35.46,-24.69 60.38,-57.69 74.74,-99l131.99 0c-19.76,70.94 -59.26,128.62 -118.52,173.07 -59.26,44.45 -132.89,66.67 -220.88,66.67 -70.04,0 -132.67,-15.72 -187.89,-47.14 -55.22,-31.43 -98.54,-76.1 -129.96,-134.01 -31.43,-57.91 -47.15,-125.03 -47.15,-201.35 0,-76.32 15.27,-143.21 45.8,-200.67 30.53,-57.46 73.4,-101.69 128.62,-132.66 55.22,-30.99 118.74,-46.47 190.58,-46.47 70.03,0 131.98,15.26 185.86,45.79 53.87,30.53 95.4,72.51 124.58,125.93 29.18,53.42 43.77,113.81 43.77,181.15zm-126.6 -25.59c0,-46.68 -10.33,-86.86 -30.98,-120.54 -20.65,-33.67 -48.71,-59.26 -84.17,-76.76 -35.47,-17.51 -74.75,-26.26 -117.85,-26.26 -61.95,0 -114.7,19.75 -158.26,59.26 -43.54,39.5 -68.46,94.28 -74.74,164.31l466 0zm1283.54 -315.15l-444.46 1085.55 -126.6 0 145.45 -355.57 -297.65 -729.98 136.03 0 231.65 597.99 228.97 -597.99 126.6 0zm444.46 750.19c-69.14,0 -131.77,-15.72 -187.88,-47.14 -56.12,-31.43 -100.11,-76.1 -131.99,-134.01 -31.88,-57.91 -47.82,-125.03 -47.82,-201.35 0,-75.42 16.39,-142.09 49.17,-200 32.77,-57.91 77.44,-102.36 134,-133.33 56.57,-30.99 119.87,-46.47 189.91,-46.47 70.03,0 133.33,15.48 189.9,46.47 56.56,30.98 101.23,75.2 134,132.66 32.78,57.46 49.17,124.36 49.17,200.67 0,76.33 -16.84,143.44 -50.51,201.35 -33.68,57.91 -79.24,102.58 -136.7,134.01 -57.46,31.42 -121.22,47.14 -191.25,47.14zm0 -107.75c43.99,0 85.3,-10.33 123.91,-30.98 38.61,-20.65 69.81,-51.63 93.61,-92.94 23.79,-41.3 35.69,-91.59 35.69,-150.85 0,-59.26 -11.68,-109.55 -35.02,-150.85 -23.34,-41.3 -53.87,-72.05 -91.59,-92.26 -37.71,-20.2 -78.57,-30.31 -122.56,-30.31 -44.89,0 -85.97,10.1 -123.24,30.31 -37.26,20.2 -67.12,50.96 -89.57,92.26 -22.45,41.3 -33.67,91.59 -33.67,150.85 0,60.16 11,110.9 33,152.2 22,41.3 51.4,72.05 88.22,92.26 36.81,20.2 77.22,30.31 121.22,30.31zm1194.64 -642.44l0 738.07 -122.56 0 0 -109.1c-23.34,37.72 -55.89,67.12 -97.65,88.22 -41.75,21.1 -87.77,31.65 -138.05,31.65 -57.46,0 -109.09,-11.9 -154.89,-35.69 -45.79,-23.8 -81.93,-59.48 -108.42,-107.08 -26.49,-47.58 -39.73,-105.5 -39.73,-173.74l0 -432.33 121.21 0 0 416.17c0,72.73 18.41,128.62 55.22,167.68 36.81,39.06 87.1,58.59 150.85,58.59 65.54,0 117.18,-20.2 154.89,-60.61 37.72,-40.41 56.57,-99.21 56.57,-176.43l0 -405.4 122.56 0zm329.98 119.87c21.55,-42.2 52.31,-74.98 92.26,-98.33 39.96,-23.34 88.67,-35.02 146.13,-35.02l0 126.6 -32.33 0c-137.37,0 -206.07,74.53 -206.07,223.58l0 401.36 -122.56 0 0 -738.07 122.56 0 0 119.87zm1039.76 -18.86l-154.89 0 0 637.06 -122.56 0 0 -637.06 -95.63 0 0 -101.01 95.63 0 0 -52.53c0,-82.61 21.33,-142.99 63.98,-181.15 42.64,-38.16 111.11,-57.24 205.39,-57.24l0 102.36c-53.87,0 -91.81,10.55 -113.81,31.66 -21.99,21.1 -33,55.89 -33,104.38l0 52.53 154.89 0 0 101.01zm797.33 -101.01l0 738.07 -122.56 0 0 -109.1c-23.34,37.72 -55.89,67.12 -97.65,88.22 -41.75,21.1 -87.77,31.65 -138.05,31.65 -57.46,0 -109.09,-11.9 -154.89,-35.69 -45.79,-23.8 -81.93,-59.48 -108.42,-107.08 -26.49,-47.58 -39.73,-105.5 -39.73,-173.74l0 -432.33 121.21 0 0 416.17c0,72.73 18.41,128.62 55.22,167.68 36.81,39.06 87.1,58.59 150.85,58.59 65.54,0 117.18,-20.2 154.89,-60.61 37.72,-40.41 56.57,-99.21 56.57,-176.43l0 -405.4 122.56 0zm356.91 101.01l0 435.03c0,35.91 7.63,61.28 22.9,76.09 15.26,14.81 41.75,22.22 79.46,22.22l90.24 0 0 103.71 -110.44 0c-68.24,0 -119.42,-15.72 -153.55,-47.14 -34.12,-31.43 -51.18,-83.06 -51.18,-154.89l0 -435.03 -95.63 0 0 -101.01 95.63 0 0 -185.86 122.56 0 0 185.86 192.6 0 0 101.01 -192.6 0zm995.32 -101.01l0 738.07 -122.56 0 0 -109.1c-23.34,37.72 -55.89,67.12 -97.65,88.22 -41.75,21.1 -87.77,31.65 -138.05,31.65 -57.46,0 -109.09,-11.9 -154.89,-35.69 -45.79,-23.8 -81.93,-59.48 -108.42,-107.08 -26.49,-47.58 -39.73,-105.5 -39.73,-173.74l0 -432.33 121.21 0 0 416.17c0,72.73 18.41,128.62 55.22,167.68 36.81,39.06 87.1,58.59 150.85,58.59 65.54,0 117.18,-20.2 154.89,-60.61 37.72,-40.41 56.57,-99.21 56.57,-176.43l0 -405.4 122.56 0zm329.98 119.87c21.55,-42.2 52.31,-74.98 92.26,-98.33 39.96,-23.34 88.67,-35.02 146.13,-35.02l0 126.6 -32.33 0c-137.37,0 -206.07,74.53 -206.07,223.58l0 401.36 -122.56 0 0 -738.07 122.56 0 0 119.87zm1053.23 220.88c0,23.34 -1.34,48.04 -4.04,74.07l-589.91 0c4.49,72.73 29.4,129.53 74.75,170.38 45.34,40.85 100.34,61.28 164.99,61.28 52.98,0 97.19,-12.35 132.66,-37.04 35.46,-24.69 60.38,-57.69 74.74,-99l131.99 0c-19.76,70.94 -59.26,128.62 -118.52,173.07 -59.26,44.45 -132.89,66.67 -220.88,66.67 -70.04,0 -132.67,-15.72 -187.89,-47.14 -55.22,-31.43 -98.54,-76.1 -129.96,-134.01 -31.43,-57.91 -47.15,-125.03 -47.15,-201.35 0,-76.32 15.27,-143.21 45.8,-200.67 30.53,-57.46 73.4,-101.69 128.62,-132.66 55.22,-30.99 118.74,-46.47 190.58,-46.47 70.03,0 131.98,15.26 185.86,45.79 53.87,30.53 95.4,72.51 124.58,125.93 29.18,53.42 43.77,113.81 43.77,181.15zm-126.6 -25.59c0,-46.68 -10.33,-86.86 -30.98,-120.54 -20.65,-33.67 -48.71,-59.26 -84.17,-76.76 -35.47,-17.51 -74.75,-26.26 -117.85,-26.26 -61.95,0 -114.7,19.75 -158.26,59.26 -43.54,39.5 -68.46,94.28 -74.74,164.31l466 0z"/>
   <g>
    <path class="fil6" d="M13197.9 1829.39l0 2969.6 -487.11 0 0 -2033.85 -905.83 2033.85 -337.55 0 -910.11 -2033.85 0 2033.85 -487.11 0 0 -2969.6 525.56 0 1042.56 2328.68 1038.29 -2328.68 521.29 0zm2773.05 615.28l0 2354.32 -487.1 0 0 -277.73c-76.91,96.85 -177.32,173.04 -301.23,228.59 -123.91,55.55 -255.65,83.32 -395.23,83.32 -185.16,0 -351.08,-38.45 -497.78,-115.36 -146.71,-76.91 -262.07,-190.85 -346.1,-341.83 -84.03,-150.97 -126.05,-333.28 -126.05,-546.92l0 -1384.39 482.82 0 0 1311.76c0,210.8 52.7,372.44 158.1,484.96 105.39,112.52 249.24,168.78 431.55,168.78 182.31,0 326.87,-56.26 433.69,-168.78 106.82,-112.52 160.23,-274.16 160.23,-484.96l0 -1311.76 487.1 0zm1858.68 -38.45c179.46,0 339.69,38.45 480.7,115.36 141,76.92 252.1,190.85 333.28,341.83 81.18,150.97 121.77,333.28 121.77,546.92l0 1388.66 -482.83 0 0 -1316.03c0,-210.79 -52.69,-372.44 -158.09,-484.96 -105.4,-112.52 -249.24,-168.78 -431.55,-168.78 -182.31,0 -326.88,56.26 -433.69,168.78 -106.83,112.52 -160.23,274.17 -160.23,484.96l0 1316.03 -487.11 0 0 -3161.88 487.11 0 0 1081.03c82.6,-99.71 187.29,-176.61 314.05,-230.74 126.77,-54.12 265.63,-81.18 416.6,-81.18zm1392.94 1204.93c0,-236.43 49.14,-445.8 147.42,-628.1 98.27,-182.31 232.15,-324.02 401.64,-425.15 169.49,-101.11 356.78,-151.68 561.88,-151.68 185.15,0 346.81,36.32 484.96,108.96 138.15,72.64 248.54,163.07 331.14,271.32l0 -341.83 491.37 0 0 2354.32 -491.37 0 0 -350.37c-82.6,111.1 -195.12,203.68 -337.55,277.74 -142.42,74.06 -304.79,111.09 -487.1,111.09 -202.25,0 -387.4,-51.98 -555.47,-155.95 -168.06,-103.97 -301.23,-249.25 -399.5,-435.83 -98.28,-186.58 -147.42,-398.09 -147.42,-634.51zm1927.04 8.55c0,-162.37 -33.47,-303.37 -100.41,-423.01 -66.94,-119.64 -154.54,-210.79 -262.78,-273.46 -108.24,-62.67 -225.04,-94 -350.37,-94 -125.33,0 -242.12,30.63 -350.36,91.87 -108.24,61.24 -195.84,150.97 -262.78,269.18 -66.94,118.22 -100.41,258.51 -100.41,420.87 0,162.37 33.47,304.8 100.41,427.28 66.94,122.49 155.25,215.78 264.92,279.87 109.66,64.1 225.74,96.14 348.23,96.14 125.34,0 242.13,-31.33 350.37,-94 108.24,-62.66 195.84,-154.53 262.78,-275.59 66.93,-121.07 100.41,-262.78 100.41,-425.15zm1380.12 -1486.93c-88.3,0 -162.37,-29.92 -222.18,-89.73 -59.82,-59.82 -89.73,-133.89 -89.73,-222.19 0,-88.3 29.91,-162.37 89.73,-222.19 59.81,-59.81 133.88,-89.72 222.18,-89.72 85.46,0 158.1,29.91 217.92,89.72 59.82,59.82 89.73,133.89 89.73,222.19 0,88.3 -29.91,162.37 -89.73,222.19 -59.81,59.81 -132.46,89.73 -217.92,89.73zm239.28 311.91l0 2354.32 -487.11 0 0 -2354.32 487.11 0zm3490.88 -38.45c185.16,0 351.08,38.45 497.78,115.36 146.71,76.92 262.07,190.85 346.1,341.83 84.03,150.97 126.05,333.28 126.05,546.92l0 1388.66 -482.82 0 0 -1316.03c0,-210.79 -52.7,-372.44 -158.1,-484.96 -105.39,-112.52 -249.24,-168.78 -431.55,-168.78 -182.31,0 -326.87,56.26 -433.69,168.78 -106.82,112.52 -160.23,274.17 -160.23,484.96l0 1316.03 -482.83 0 0 -1316.03c0,-210.79 -52.69,-372.44 -158.09,-484.96 -105.4,-112.52 -249.24,-168.78 -431.55,-168.78 -182.31,0 -326.88,56.26 -433.69,168.78 -106.83,112.52 -160.23,274.17 -160.23,484.96l0 1316.03 -487.11 0 0 -2354.32 487.11 0 0 269.19c79.75,-96.85 180.88,-172.34 303.36,-226.46 122.49,-54.12 253.52,-81.18 393.1,-81.18 188.01,0 356.07,39.88 504.19,119.64 148.13,79.76 262.06,195.13 341.83,346.1 71.22,-142.42 182.31,-255.66 333.28,-339.69 150.97,-84.03 313.34,-126.05 487.1,-126.05zm1837.31 -273.46c-88.3,0 -162.37,-29.92 -222.18,-89.73 -59.82,-59.82 -89.73,-133.89 -89.73,-222.19 0,-88.3 29.91,-162.37 89.73,-222.19 59.81,-59.81 133.88,-89.72 222.18,-89.72 85.46,0 158.1,29.91 217.92,89.72 59.82,59.82 89.73,133.89 89.73,222.19 0,88.3 -29.91,162.37 -89.73,222.19 -59.81,59.81 -132.46,89.73 -217.92,89.73zm239.28 311.91l0 2354.32 -487.11 0 0 -2354.32 487.11 0zm1828.76 -38.45c185.15,0 351.08,38.45 497.78,115.36 146.7,76.92 261.35,190.85 343.96,341.83 82.61,150.97 123.91,333.28 123.91,546.92l0 1388.66 -482.83 0 0 -1316.03c0,-210.79 -52.69,-372.44 -158.09,-484.96 -105.4,-112.52 -249.24,-168.78 -431.55,-168.78 -182.31,0 -326.88,56.26 -433.69,168.78 -106.83,112.52 -160.23,274.17 -160.23,484.96l0 1316.03 -487.11 0 0 -2354.32 487.11 0 0 269.19c79.75,-96.85 181.59,-172.34 305.5,-226.46 123.91,-54.12 255.66,-81.18 395.24,-81.18z"/>
    <g>
     <path class="fil3" d="M21621.53 1316.82c10.73,-22.07 23.4,-43.25 37.71,-63.99 7.66,-11.12 19.43,-25.41 29.6,-38.96 -14.32,-18.16 -33.46,-39.17 -43.5,-52.18 -38,-49.25 -69.4,-104.29 -69.4,-168.39 0,-98.84 105.44,-188.7 178.37,-242.95 54.61,-40.62 166.37,-116.21 235.94,-116.21 83.9,0 148.51,47.36 198.96,110.41 17.2,21.5 32.34,44.18 47.49,67.13 1.73,2.62 3.69,5.69 5.78,8.95 20.55,-6.08 44.12,-14.64 57.55,-17.75 18.24,-4.23 34.96,-7.6 51.31,-10.18 8.04,-100.48 35.55,-205.91 124.41,-258.05 84.34,-49.49 187.68,-28.97 279.01,-16.01 121.09,17.2 237.53,25.45 284.67,162.41 17.84,51.81 10.35,115.36 2.37,168.69 -2.52,16.77 -6.07,35.44 -9.25,54.25 35.42,19.29 69.45,43.5 102.31,67.09 24.48,-17.91 48.62,-36.16 73.37,-54.07 38.83,-28.1 79.41,-54.16 128.37,-59.11 59.53,-6.01 108.26,20.52 150.55,60.05 44.23,41.34 85.03,96.64 121.41,145.05 57.08,75.98 129.7,163.41 102.15,265.61 -21.18,78.56 -105.85,146.27 -181.66,198.68 11.51,36.62 20.83,76 26.79,113.85 48.33,6.21 96.97,10.43 144.16,26.39 117.04,39.57 161.11,134.54 144.91,254.58 -9.43,69.91 -18.2,140.72 -30.89,210.09 -19.12,104.49 -76.7,181.38 -184.78,199.47 -57.77,9.67 -125.13,0.56 -188.18,-12.27 -18.6,32.96 -41.15,64.08 -63.5,94.87 20.83,29.45 41.81,58.87 60.95,89 29.55,46.49 52.1,94.91 45.32,151.58 -7.12,59.52 -44.21,104.6 -86.45,144.08 -52.39,48.96 -114.29,94.21 -171.3,137.85 -108.86,83.31 -223.61,80.06 -319.99,-15.89 -28.31,-28.19 -51.44,-60.01 -75.49,-91.7 -3.2,-4.22 -7.84,-10.44 -13.02,-17.01 -23.35,7.4 -46.68,15 -72.53,19.92 -17.83,3.39 -33.03,4.33 -48.28,5.03 -11.57,58.22 2.86,119.13 -23.93,179.48 -61.93,139.46 -264.43,109.24 -384.91,92.52 -110.48,-15.34 -239.61,-39.98 -266.35,-168.1 -8.78,-42.05 -4.01,-87.03 0.2,-129.41 2.92,-29.44 5.6,-58.39 7.31,-87.49 -32.4,-17.23 -67.42,-39.1 -98.08,-61.45 -33.33,27.22 -66.09,55.13 -104.44,76.37 -96.93,53.68 -191.95,38.46 -272.04,-39.09 -3.94,-3.83 -7.04,-7.35 -10.33,-11.75l-159.39 -213.99c-2.66,-3.58 -4.74,-6.79 -6.92,-10.69 -62.15,-111.35 -13.11,-221.79 73.55,-300.99 19.55,-17.86 50.58,-41.66 82.99,-62.34 -5.15,-15.82 -10.56,-31.58 -14.21,-46.89 -4.69,-19.72 -8.21,-39.71 -11.63,-59.72 -107.31,-11.75 -229.63,-38.57 -274.42,-138.84 -22.05,-49.33 -20.17,-102.85 -13.91,-155.26 6.69,-56.02 17.22,-111.73 24.26,-167.85 15.87,-126.49 71.7,-232.42 211.54,-236.41 55.32,-1.57 110.17,12.62 165.44,21.57zm878.98 118.38c-81.04,0 -195.26,55.57 -247.95,115.26 -127.44,144.4 -143.83,372.95 -8.74,518.13 108.16,116.24 172.92,123.92 325.64,123.92 179.26,0 344.19,-181.8 344.19,-357.97 0,-253.03 -164.15,-399.34 -413.14,-399.34z"/>
    </g>
    <path class="fil7" d="M22500.52 1338.07c307.33,0 510.27,194.06 510.27,496.47 0,232.75 -211.14,455.1 -441.32,455.1 -168.77,0 -263.49,-11.67 -396.75,-154.89 -170.16,-182.87 -152.76,-467.51 7.03,-648.57 59.93,-67.9 196.88,-148.12 320.77,-148.12zm-55.17 -455.09c-54.69,0 -79.12,4.26 -123.37,14.52 -37.78,8.77 -73.23,26.85 -111.07,26.85 -43.52,0 -97.79,-193.07 -220.65,-193.07 -51.68,0 -317.18,171.36 -317.18,262.02 0,88.08 124.12,172.44 124.12,220.65 0,39.01 -84.53,96.17 -110.32,206.86 -176.35,-3.92 -316.35,-112.99 -345.94,122.93 -34.26,272.89 -97.02,330.92 249.41,359.75 9.07,38.94 16.2,92.91 24.4,127.31 12.27,51.49 26.44,68.98 30.77,120.92 -21.77,5.82 -260.01,126.09 -182.77,264.48l159.39 213.99c115.03,111.4 200.35,-16.9 312.99,-92.32 24.86,33.92 146.12,111.58 193.06,124.12 0,259.57 -88.38,314.62 173.13,350.92 400.17,55.54 249.77,-71.58 312.41,-237.75 18.38,-48.75 42.49,-25.03 113.21,-38.49 51.42,-9.78 73.15,-22.79 118.38,-33.31 86.21,57.73 151.42,286.67 321.76,156.28 299.61,-229.3 257.32,-198.94 91.96,-445.88 35.41,-52.9 108.22,-138.67 124.12,-206.86 194.73,45.36 307.02,62.61 335.35,-92.18 10.33,-56.52 20.65,-135.04 30.18,-205.61 24.94,-184.8 -143.4,-152.42 -282.78,-184.9 0,-77.84 -29.94,-181.85 -55.17,-234.44 262.22,-175.59 247.62,-198.82 120.19,-368.43 -189.33,-251.98 -170.78,-182.32 -396,-31.5 -52.71,-35.3 -142.35,-109.09 -206.86,-124.12 1.5,-67.22 39.15,-196.06 19.54,-253.04 -28.83,-83.72 -107.91,-83.85 -206.49,-97.86 -182.2,-25.88 -295.75,-53.88 -295.75,268.16z"/>
   </g>
  </g>
  <path class="fil8" d="M5689.61 2273.37c263.69,0 477.45,213.76 477.45,477.45 0,263.69 -213.76,477.45 -477.45,477.45 -263.69,0 -477.45,-213.76 -477.45,-477.45 0,-263.69 213.76,-477.45 477.45,-477.45z"/>
  <path class="fil7" d="M5689.61 2479.01c150.13,0 271.81,121.69 271.81,271.81 0,150.13 -121.69,271.81 -271.81,271.81 -150.13,0 -271.81,-121.69 -271.81,-271.81 0,-150.13 121.69,-271.81 271.81,-271.81z"/>
 </g>
</svg>
